<svg width="195" height="35" viewBox="0 0 195 35" fill="none" xmlns="http://www.w3.org/2000/svg">
<g id="Asset 3" clip-path="url(#clip0_835_1376)">
<g id="Layer 2">
<g id="Layer 1">
<path id="Vector" fill-rule="evenodd" clip-rule="evenodd" d="M5.04887 23.7966V0.231445H0V25.171C0.0123374 26.2191 0.429344 27.2219 1.16385 27.9698C1.53164 28.3388 1.9687 28.6316 2.44994 28.8314C2.93118 29.0311 3.44712 29.1338 3.96816 29.1336H9.68763C9.72132 29.1344 9.75481 29.1283 9.78608 29.1158C9.81735 29.1032 9.84576 29.0845 9.86959 29.0606C9.89341 29.0368 9.91216 29.0084 9.9247 28.9771C9.93725 28.9459 9.94333 28.9124 9.94257 28.8787V24.3508C9.94333 24.3171 9.93725 24.2836 9.9247 24.2523C9.91216 24.221 9.89341 24.1926 9.86959 24.1688C9.84576 24.145 9.81735 24.1262 9.78608 24.1137C9.75481 24.1011 9.72132 24.0951 9.68763 24.0958H5.34261C5.2642 24.0944 5.18949 24.0622 5.13456 24.0062C5.07963 23.9503 5.04886 23.875 5.04887 23.7966Z" fill="#0D6BDA"/>
<path id="Vector_2" fill-rule="evenodd" clip-rule="evenodd" d="M23.6875 6.51083C20.9241 6.85184 18.3806 8.19147 16.5363 10.2774C14.6919 12.3634 13.6738 15.0517 13.6738 17.8362C13.6738 20.6206 14.6919 23.3089 16.5363 25.3949C18.3806 27.4808 20.9241 28.8205 23.6875 29.1615C24.1562 29.2214 24.6283 29.251 25.1008 29.2502C25.5733 29.2513 26.0453 29.2217 26.514 29.1615C27.5365 29.0354 28.5375 28.7726 29.4901 28.38C29.5328 28.3628 29.569 28.3328 29.5939 28.2941C29.6187 28.2553 29.6309 28.2099 29.6287 28.1639V23.5085C29.631 23.4654 29.62 23.4226 29.5972 23.3859C29.5744 23.3492 29.5409 23.3204 29.5012 23.3035C29.4661 23.2794 29.4246 23.2665 29.382 23.2665C29.3395 23.2665 29.298 23.2794 29.2629 23.3035C28.375 23.9791 27.3368 24.4298 26.2369 24.6169C25.8613 24.679 25.4814 24.7105 25.1008 24.7112C24.7294 24.7086 24.3588 24.6771 23.9923 24.6169H23.8981C22.3057 24.3241 20.8673 23.4797 19.8355 22.232C18.8036 20.9842 18.2442 19.4129 18.2555 17.7939C18.2667 16.1748 18.8479 14.6114 19.897 13.3781C20.946 12.1449 22.396 11.3205 23.9923 11.0498C24.3588 10.9897 24.7294 10.9582 25.1008 10.9556C25.4814 10.9562 25.8613 10.9878 26.2369 11.0498H26.3256C27.9152 11.337 29.3533 12.1737 30.3887 13.4137C31.424 14.6537 31.9907 16.218 31.9896 17.8334V28.6627C31.9896 28.723 32.0136 28.7808 32.0562 28.8234C32.0988 28.866 32.1566 28.8899 32.2168 28.8899H36.2848C36.3151 28.8907 36.3452 28.8853 36.3734 28.8742C36.4016 28.8632 36.4273 28.8465 36.449 28.8254C36.4707 28.8042 36.488 28.7789 36.4997 28.7509C36.5115 28.723 36.5175 28.693 36.5175 28.6627V17.8334C36.518 15.0552 35.505 12.3723 33.6684 10.2877C31.8318 8.20321 29.2978 6.86029 26.5417 6.51083C26.0731 6.45059 25.601 6.42097 25.1285 6.42215C24.656 6.42132 24.1839 6.45093 23.7152 6.51083H23.6875Z" fill="#0D6BDA"/>
<path id="Vector_3" fill-rule="evenodd" clip-rule="evenodd" d="M45.4452 12.5851C45.403 12.4027 45.403 12.2132 45.4452 12.0309C45.4954 11.7571 45.6421 11.5103 45.8587 11.3354C46.0753 11.1605 46.3474 11.0691 46.6256 11.0776H58.4359C58.4991 11.0776 58.5597 11.0525 58.6044 11.0078C58.6491 10.9631 58.6742 10.9025 58.6742 10.8393V6.63284C58.6742 6.56964 58.6491 6.50902 58.6044 6.46433C58.5597 6.41964 58.4991 6.39453 58.4359 6.39453H46.6201C45.5422 6.42514 44.4914 6.73879 43.5731 7.30398C42.6547 7.86918 41.9013 8.66602 41.3883 9.6145C41.1333 10.0667 40.9465 10.5541 40.8341 11.061C40.6994 11.6495 40.6472 12.2538 40.6789 12.8566C40.7694 14.2087 41.3625 15.4779 42.3416 16.4147C42.8659 16.9533 43.4862 17.3894 44.1705 17.7005L54.2627 22.2616C54.4351 22.3339 54.5876 22.4467 54.7073 22.5905C54.8269 22.7342 54.9101 22.9047 54.9499 23.0874C54.9921 23.2697 54.9921 23.4593 54.9499 23.6416C54.8937 23.9128 54.7431 24.1552 54.5249 24.3257C54.3067 24.4962 54.035 24.5837 53.7583 24.5727H41.937C41.8738 24.5727 41.8132 24.5978 41.7685 24.6425C41.7238 24.6872 41.6987 24.7478 41.6987 24.811V29.0507C41.7001 29.1135 41.7257 29.1733 41.77 29.2177C41.8144 29.2621 41.8742 29.2876 41.937 29.289H53.7583C54.8368 29.2577 55.8881 28.9438 56.8072 28.3788C57.7263 27.8137 58.4809 27.0173 58.9956 26.0691C59.2493 25.6143 59.436 25.1252 59.5499 24.617C59.68 24.0298 59.7303 23.4276 59.6995 22.8269C59.6069 21.4754 59.0142 20.2069 58.0369 19.2689C57.5167 18.7235 56.8981 18.2816 56.2135 17.9665L46.1213 13.4109C45.9514 13.3364 45.8016 13.2227 45.6841 13.0792C45.5665 12.9356 45.4847 12.7663 45.4452 12.5851Z" fill="#0D6BDA"/>
<path id="Vector_4" fill-rule="evenodd" clip-rule="evenodd" d="M63.8848 0.231689V28.9399C63.8848 29.0016 63.9093 29.0608 63.9529 29.1045C63.9966 29.1481 64.0558 29.1727 64.1175 29.1727H68.3074C68.3696 29.1727 68.4294 29.1483 68.474 29.1048C68.5185 29.0613 68.5442 29.0021 68.5457 28.9399V21.7351C68.5431 21.6776 68.5596 21.6208 68.5927 21.5737C68.6258 21.5266 68.6736 21.4917 68.7286 21.4746C68.7818 21.4558 68.8395 21.4537 68.894 21.4685C68.9485 21.4834 68.9971 21.5145 69.0334 21.5578L74.9136 28.7625L75.1297 29.0396C75.1515 29.0691 75.1799 29.0929 75.2127 29.1093C75.2454 29.1257 75.2816 29.1341 75.3182 29.1339H80.7716C80.8157 29.1339 80.8589 29.1214 80.8962 29.0979C80.9335 29.0743 80.9633 29.0407 80.9822 29.0008C81.0026 28.9611 81.0108 28.9163 81.0059 28.872C81.001 28.8276 80.9831 28.7857 80.9545 28.7515L72.4751 17.9665C72.4378 17.918 72.4175 17.8586 72.4175 17.7974C72.4175 17.7363 72.4378 17.6769 72.4751 17.6284L80.9545 6.79911C80.9833 6.76606 81.0014 6.72504 81.0063 6.68149C81.0113 6.63794 81.0029 6.59391 80.9822 6.55525C80.9645 6.51454 80.9349 6.48009 80.8974 6.45637C80.8598 6.43265 80.816 6.42076 80.7716 6.42224H75.3182C75.282 6.42093 75.246 6.42829 75.2132 6.44372C75.1804 6.45914 75.1518 6.48218 75.1297 6.51091L69.0334 14.2976C68.9986 14.3434 68.9502 14.3769 68.8951 14.3935C68.8401 14.41 68.7812 14.4086 68.7269 14.3895C68.6727 14.3704 68.6259 14.3345 68.5934 14.2872C68.5608 14.2398 68.5441 14.1833 68.5457 14.1258V0.231689" fill="#0D6BDA"/>
<path id="Vector_5" fill-rule="evenodd" clip-rule="evenodd" d="M141.352 29.0783C141.351 29.1093 141.356 29.1402 141.368 29.1691C141.379 29.198 141.396 29.2243 141.418 29.2465C141.439 29.2687 141.465 29.2864 141.494 29.2984C141.523 29.3104 141.553 29.3166 141.584 29.3166H145.758C145.821 29.3166 145.881 29.2915 145.926 29.2468C145.971 29.2021 145.996 29.1415 145.996 29.0783V18.2324C145.997 17.8389 146.028 17.4461 146.09 17.0575C146.369 15.4037 147.224 13.902 148.505 12.8186C149.785 11.7352 151.407 11.14 153.084 11.1385H153.844C153.875 11.1392 153.905 11.1337 153.934 11.1224C153.963 11.111 153.99 11.094 154.012 11.0723C154.034 11.0506 154.052 11.0247 154.064 10.9961C154.076 10.9675 154.082 10.9367 154.082 10.9057V6.71585C154.082 6.65265 154.057 6.59203 154.012 6.54734C153.967 6.50265 153.907 6.47754 153.844 6.47754H153.084C150.224 6.48379 147.463 7.53304 145.321 9.42866C143.178 11.3243 141.801 13.9362 141.446 16.7748C141.386 17.2565 141.356 17.7414 141.357 18.2268V29.0783H141.352Z" fill="#0D6BDA"/>
<path id="Vector_6" fill-rule="evenodd" clip-rule="evenodd" d="M155.18 29.2502C155.18 29.3134 155.205 29.374 155.249 29.4187C155.294 29.4634 155.355 29.4885 155.418 29.4885H159.613C159.677 29.4885 159.737 29.4634 159.782 29.4187C159.827 29.374 159.852 29.3134 159.852 29.2502V18.4043C159.85 18.0125 159.881 17.6213 159.946 17.2349C160.224 15.5806 161.079 14.0783 162.359 12.9947C163.64 11.9111 165.263 11.3163 166.94 11.3159H167.699C167.763 11.3159 167.823 11.2908 167.868 11.2461C167.913 11.2014 167.938 11.1408 167.938 11.0776V6.88218C167.936 6.81994 167.91 6.76074 167.866 6.71724C167.821 6.67374 167.762 6.6494 167.699 6.64941H166.94C163.823 6.65381 160.835 7.8935 158.631 10.0968C156.427 12.3002 155.186 15.2875 155.18 18.4043C155.18 18.4763 155.18 18.5539 155.18 18.6259V29.2502Z" fill="#0D6BDA"/>
<path id="Vector_7" fill-rule="evenodd" clip-rule="evenodd" d="M90.3359 0.231689V17.8944C90.3521 20.6507 91.3751 23.306 93.2123 25.3607C95.0496 27.4154 97.5744 28.7277 100.312 29.0507C100.781 29.106 101.253 29.1338 101.725 29.1339C102.195 29.134 102.666 29.1062 103.133 29.0507C105.879 28.7443 108.417 27.4361 110.259 25.3763C112.102 23.3166 113.121 20.6498 113.121 17.8861C113.121 15.1224 112.102 12.4557 110.259 10.3959C108.417 8.33617 105.879 7.02797 103.133 6.72152C102.666 6.66605 102.195 6.63829 101.725 6.63838C101.253 6.63846 100.781 6.66622 100.312 6.72152C99.293 6.84564 98.2957 7.10663 97.3467 7.49741C97.3044 7.51238 97.2677 7.54018 97.2419 7.57692C97.2161 7.61367 97.2024 7.65756 97.2026 7.70247V12.2969C97.2014 12.3391 97.2129 12.3807 97.2357 12.4163C97.2584 12.4518 97.2913 12.4798 97.3301 12.4964C97.366 12.5209 97.4085 12.5341 97.452 12.5341C97.4955 12.5341 97.538 12.5209 97.5739 12.4964C98.4597 11.8306 99.4947 11.3911 100.589 11.2162C101.339 11.0906 102.105 11.0906 102.856 11.2162H102.95C104.538 11.4827 105.978 12.3062 107.014 13.5389C108.05 14.7716 108.612 16.333 108.601 17.9429C108.589 19.5528 108.005 21.1061 106.952 22.3241C105.899 23.5421 104.447 24.3452 102.856 24.5893C102.105 24.7149 101.339 24.7149 100.589 24.5893H100.495C98.9243 24.316 97.4993 23.5009 96.4676 22.2859C95.4358 21.0709 94.8625 19.5327 94.8472 17.9388V0.231689" fill="#0D6BDA"/>
<path id="Vector_8" fill-rule="evenodd" clip-rule="evenodd" d="M183.006 21.5412L176.445 6.78807C176.427 6.74689 176.398 6.71199 176.36 6.68818C176.323 6.66437 176.278 6.6528 176.234 6.65506H171.834C171.796 6.65431 171.759 6.66319 171.725 6.68085C171.692 6.69851 171.664 6.72438 171.643 6.756C171.623 6.78763 171.611 6.82396 171.608 6.86158C171.605 6.89919 171.612 6.93684 171.628 6.97096L180.762 27.3881C180.777 27.4222 180.785 27.459 180.785 27.4962C180.785 27.5334 180.777 27.5703 180.762 27.6043L177.708 34.3601C177.692 34.3943 177.685 34.4319 177.688 34.4695C177.69 34.5071 177.702 34.5435 177.723 34.5751C177.743 34.6067 177.772 34.6326 177.805 34.6502C177.838 34.6679 177.876 34.6768 177.913 34.676H182.347C182.391 34.6779 182.434 34.6662 182.471 34.6423C182.507 34.6185 182.536 34.5838 182.552 34.543L194.983 6.99868C195.002 6.96582 195.012 6.92855 195.012 6.8906C195.012 6.85266 195.002 6.81539 194.983 6.78253C194.964 6.75023 194.936 6.72383 194.903 6.70624C194.869 6.68864 194.832 6.68053 194.795 6.68277H190.394C190.35 6.68086 190.307 6.69265 190.27 6.71649C190.234 6.74033 190.205 6.77504 190.189 6.81579L183.538 21.5689C183.518 21.6151 183.485 21.6543 183.442 21.6819C183.4 21.7094 183.351 21.7241 183.3 21.7241C183.25 21.7248 183.2 21.7105 183.157 21.6828C183.115 21.6552 183.082 21.6155 183.062 21.5689L183.006 21.5412Z" fill="#0D6BDA"/>
<path id="Vector_9" fill-rule="evenodd" clip-rule="evenodd" d="M128.223 24.567C127.205 24.7745 126.153 24.748 125.147 24.4894H125.08C124.369 24.3004 123.694 23.9972 123.08 23.5916C121.78 22.7465 120.803 21.4868 120.309 20.0169C119.935 18.9229 119.849 17.7509 120.059 16.6141C120.06 16.6048 120.06 16.5956 120.059 16.5864C120.392 14.8398 121.402 13.2958 122.869 12.2912C123.818 11.645 124.918 11.2538 126.061 11.1551C127.616 11.0119 129.174 11.3982 130.482 12.2512C131.789 13.1043 132.771 14.3741 133.266 15.8548C133.631 16.9432 133.713 18.1066 133.505 19.2355C133.504 19.2447 133.504 19.254 133.505 19.2632C133.497 19.3029 133.479 19.34 133.454 19.3713C133.428 19.4026 133.395 19.4271 133.358 19.4424C133.321 19.4578 133.28 19.4637 133.24 19.4595C133.2 19.4553 133.161 19.4412 133.128 19.4184L128.844 16.6473L124.576 13.8763L124.41 13.7654C124.367 13.7359 124.315 13.7201 124.263 13.7201C124.211 13.7201 124.159 13.7359 124.116 13.7654C123.025 14.6548 122.237 15.8613 121.861 17.2182C121.847 17.2688 121.851 17.3222 121.869 17.3709C121.888 17.4196 121.922 17.4612 121.966 17.4897L122.138 17.6006L124.354 19.0415L131.005 23.3865L131.615 23.7856L134.585 25.7253C134.681 25.7888 134.797 25.8153 134.911 25.8C135.025 25.7847 135.13 25.7287 135.206 25.6422L135.483 25.3152C136.088 24.605 136.6 23.821 137.007 22.982C138.257 20.4873 138.547 17.6207 137.823 14.9262C137.099 12.2316 135.411 9.89651 133.08 8.364C130.748 6.83149 127.935 6.20818 125.174 6.61233C122.414 7.01649 119.897 8.41999 118.103 10.5565C117.801 10.9078 117.521 11.2781 117.266 11.665C116.069 13.5534 115.453 15.7522 115.496 17.9878C115.539 20.2233 116.238 22.3969 117.507 24.238C118.776 26.0792 120.558 27.5066 122.632 28.3425C124.706 29.1785 126.98 29.3862 129.171 28.9398L129.886 28.7957C129.945 28.7824 129.996 28.7466 130.029 28.6959C130.062 28.6451 130.074 28.5835 130.063 28.5241L129.215 24.6169C129.2 24.5585 129.164 24.5078 129.114 24.4749C129.064 24.442 129.003 24.4294 128.943 24.4396L128.223 24.5892V24.567Z" fill="#0D6BDA"/>
<path id="Vector_10" d="M135.133 6.53296C136.805 6.53296 138.159 5.17817 138.159 3.50696C138.159 1.83574 136.805 0.480957 135.133 0.480957C133.462 0.480957 132.107 1.83574 132.107 3.50696C132.107 5.17817 133.462 6.53296 135.133 6.53296Z" fill="#0D6BDA"/>
<path id="Vector_11" d="M9.9418 6.58301H0.292969V11.1109H9.9418V6.58301Z" fill="#0D6BDA"/>
</g>
</g>
</g>
<defs>
<clipPath id="clip0_835_1376">
<rect width="194.977" height="34.4166" fill="white" transform="translate(0 0.231445)"/>
</clipPath>
</defs>
</svg>
